<svg width="15" height="15" viewBox="0 0 30 30" fill="none" xmlns="http://www.w3.org/2000/svg">
<g opacity="0.5">
<g clip-path="url(#clip0_791_4566)">
<path d="M23.4916 16.1384L14.2608 24.7098C14.1406 24.8103 14.0024 24.8605 13.8462 24.8605C13.6899 24.8605 13.5517 24.8103 13.4315 24.7098L8.23918 19.8884C8.13101 19.7768 8.07692 19.6484 8.07692 19.5033C8.07692 19.3583 8.13101 19.2355 8.23918 19.135L9.06851 18.365C9.17668 18.2645 9.30889 18.2143 9.46514 18.2143C9.62139 18.2143 9.75961 18.2645 9.87981 18.365L13.8462 22.048L21.851 14.615C21.9712 14.5145 22.1094 14.4643 22.2656 14.4643C22.4219 14.4643 22.5541 14.5145 22.6623 14.615L23.4916 15.385C23.5998 15.4855 23.6538 15.6083 23.6538 15.7533C23.6538 15.8984 23.5998 16.0268 23.4916 16.1384ZM2.30769 27.8571H27.6923V10.7143H2.30769V27.8571ZM9.23077 7.5V2.67857C9.23077 2.52232 9.17668 2.39397 9.06851 2.29353C8.96034 2.19308 8.82211 2.14286 8.65385 2.14286H7.5C7.33173 2.14286 7.19351 2.19308 7.08534 2.29353C6.97716 2.39397 6.92308 2.52232 6.92308 2.67857V7.5C6.92308 7.65625 6.97716 7.7846 7.08534 7.88504C7.19351 7.98549 7.33173 8.03571 7.5 8.03571H8.65385C8.82211 8.03571 8.96034 7.98549 9.06851 7.88504C9.17668 7.7846 9.23077 7.65625 9.23077 7.5ZM23.0769 7.5V2.67857C23.0769 2.52232 23.0228 2.39397 22.9147 2.29353C22.8065 2.19308 22.6683 2.14286 22.5 2.14286H21.3462C21.1779 2.14286 21.0397 2.19308 20.9315 2.29353C20.8233 2.39397 20.7692 2.52232 20.7692 2.67857V7.5C20.7692 7.65625 20.8233 7.7846 20.9315 7.88504C21.0397 7.98549 21.1779 8.03571 21.3462 8.03571H22.5C22.6683 8.03571 22.8065 7.98549 22.9147 7.88504C23.0228 7.7846 23.0769 7.65625 23.0769 7.5ZM30 6.42857V27.8571C30 28.4375 29.7716 28.9397 29.3149 29.3638C28.8582 29.7879 28.3173 30 27.6923 30H2.30769C1.68269 30 1.14183 29.7879 0.685096 29.3638C0.228365 28.9397 0 28.4375 0 27.8571V6.42857C0 5.84821 0.228365 5.34598 0.685096 4.92188C1.14183 4.49777 1.68269 4.28571 2.30769 4.28571H4.61538V2.67857C4.61538 1.94196 4.89784 1.31138 5.46274 0.78683C6.02764 0.262277 6.70673 0 7.5 0H8.65385C9.44711 0 10.1262 0.262277 10.6911 0.78683C11.256 1.31138 11.5385 1.94196 11.5385 2.67857V4.28571H18.4615V2.67857C18.4615 1.94196 18.744 1.31138 19.3089 0.78683C19.8738 0.262277 20.5529 0 21.3462 0H22.5C23.2933 0 23.9724 0.262277 24.5373 0.78683C25.1022 1.31138 25.3846 1.94196 25.3846 2.67857V4.28571H27.6923C28.3173 4.28571 28.8582 4.49777 29.3149 4.92188C29.7716 5.34598 30 5.84821 30 6.42857Z" fill="black"/>
</g>
</g>
<defs>
<clipPath id="clip0_791_4566">
<rect width="30" height="30" fill="white"/>
</clipPath>
</defs>
</svg>
