<svg width="45" height="45" viewBox="0 0 45 45" fill="none" xmlns="http://www.w3.org/2000/svg">
<path d="M39.1012 9.64875L29.7262 0.27375C29.5496 0.0987305 29.3111 0.000373381 29.0625 0L9.375 0C7.30687 0 5.625 1.68187 5.625 3.75V41.25C5.625 43.3181 7.30687 45 9.375 45H35.625C37.6931 45 39.375 43.3181 39.375 41.25V10.3125C39.3746 10.0639 39.2763 9.82537 39.1012 9.64875Z" fill="#303C42"/>
<path d="M30 3.20068L36.1744 9.37506H31.875C30.8419 9.37506 30 8.53318 30 7.50006V3.20068Z" fill="#A3D6A6"/>
<path d="M35.625 43.125H9.375C8.34188 43.125 7.5 42.2831 7.5 41.25V3.75C7.5 2.71688 8.34188 1.875 9.375 1.875H28.125V7.5C28.125 9.56813 29.8069 11.25 31.875 11.25H37.5V41.25C37.5 42.2831 36.6581 43.125 35.625 43.125Z" fill="#66BB6A"/>
<path d="M37.4999 18.4142V11.2498H31.8749C30.883 11.2498 29.9868 10.8561 29.3155 10.2261L29.3118 10.2279L37.4999 18.4142Z" fill="url(#paint0_linear_861_3824)"/>
<path d="M30.9375 16.875H14.0625C13.8139 16.875 13.5754 16.9738 13.3996 17.1496C13.2238 17.3254 13.125 17.5639 13.125 17.8125V34.6875C13.125 34.9361 13.2238 35.1746 13.3996 35.3504C13.5754 35.5262 13.8139 35.625 14.0625 35.625H30.9375C31.1861 35.625 31.4246 35.5262 31.6004 35.3504C31.7762 35.1746 31.875 34.9361 31.875 34.6875V17.8125C31.875 17.5639 31.7762 17.3254 31.6004 17.1496C31.4246 16.9738 31.1861 16.875 30.9375 16.875ZM30 22.5H21.5625V18.75H30V22.5ZM21.5625 24.375H30V28.125H21.5625V24.375ZM19.6875 28.125H15V24.375H19.6875V28.125ZM19.6875 18.75V22.5H15V18.75H19.6875ZM15 30H19.6875V33.75H15V30ZM21.5625 33.75V30H30V33.75H21.5625Z" fill="white"/>
<path d="M39.1012 9.64875L29.7262 0.27375C29.5496 0.0987305 29.3111 0.000373381 29.0625 0L9.375 0C7.30687 0 5.625 1.68187 5.625 3.75V41.25C5.625 43.3181 7.30687 45 9.375 45H35.625C37.6931 45 39.375 43.3181 39.375 41.25V10.3125C39.3746 10.0639 39.2763 9.82537 39.1012 9.64875Z" fill="url(#paint1_linear_861_3824)"/>
<defs>
<linearGradient id="paint0_linear_861_3824" x1="31.1043" y1="8.43545" x2="39.2905" y2="16.6236" gradientUnits="userSpaceOnUse">
<stop stop-opacity="0.1"/>
<stop offset="1" stop-opacity="0"/>
</linearGradient>
<linearGradient id="paint1_linear_861_3824" x1="0.496875" y1="13.9144" x2="43.2188" y2="33.8363" gradientUnits="userSpaceOnUse">
<stop stop-color="white" stop-opacity="0.2"/>
<stop offset="1" stop-color="white" stop-opacity="0"/>
</linearGradient>
</defs>
</svg>
