<svg width="45" height="45" viewBox="0 0 45 45" fill="none" xmlns="http://www.w3.org/2000/svg">
<g clip-path="url(#clip0_861_87)">
<path d="M44.8744 26.7169C44.8688 26.7075 44.8575 26.7038 44.8519 26.6944L44.8575 26.6906L30.795 4.19062C30.7105 4.05603 30.5933 3.94504 30.4543 3.86799C30.3152 3.79094 30.159 3.75035 30 3.75H15C14.8417 3.75151 14.6864 3.79326 14.5486 3.87132C14.4108 3.94939 14.2952 4.0612 14.2125 4.19625L14.205 4.19062L14.1844 4.22625L14.1825 4.22813L0.142545 26.6906C0.0522246 26.8341 0.00274856 26.9995 -0.000555376 27.169C-0.00385931 27.3384 0.039134 27.5056 0.123795 27.6525L7.6238 40.7775C7.7888 41.0662 8.09255 41.2463 8.4263 41.25H36.5625C36.7278 41.2499 36.8901 41.2062 37.033 41.1232C37.1759 41.0403 37.2943 40.921 37.3763 40.7775L44.8763 27.6525C44.9576 27.5099 45.0002 27.3486 44.9998 27.1844C44.9995 27.0203 44.9563 26.8591 44.8744 26.7169ZM18.045 26.25L22.5 18.8906L26.9532 26.25H18.045Z" fill="#303C42"/>
<path d="M29.4786 5.625L42.3693 26.25H29.1449L16.6611 5.625H29.4786Z" fill="#FFEE58"/>
<path d="M2.02881 27.2099L14.9869 6.47803L21.4032 17.0793L8.46006 38.4637L2.02881 27.2099Z" fill="#66BB6A"/>
<path d="M36.0168 39.375H10.1006L16.9087 28.125H42.4443L36.0168 39.375Z" fill="#26C6DA"/>
<path d="M21.4031 17.0793L14.9868 6.47803L19.2806 20.5874L21.4031 17.0793Z" fill="url(#paint0_linear_861_87)"/>
<path d="M27.4387 23.4316L29.145 26.2498H42.3693L27.4387 23.4316Z" fill="url(#paint1_linear_861_87)"/>
<path d="M16.9087 28.125L10.1006 39.375L21.3506 28.125H16.9087Z" fill="url(#paint2_linear_861_87)"/>
<path d="M44.8744 26.7169C44.8688 26.7075 44.8575 26.7038 44.8519 26.6944L44.8575 26.6906L30.795 4.19062C30.7105 4.05603 30.5933 3.94504 30.4543 3.86799C30.3152 3.79094 30.159 3.75035 30 3.75H15C14.8417 3.75151 14.6864 3.79326 14.5486 3.87132C14.4108 3.94939 14.2952 4.0612 14.2125 4.19625L14.205 4.19062L14.1844 4.22625L14.1825 4.22813L0.142545 26.6906C0.0522246 26.8341 0.00274856 26.9995 -0.000555376 27.169C-0.00385931 27.3384 0.039134 27.5056 0.123795 27.6525L7.6238 40.7775C7.7888 41.0662 8.09255 41.2463 8.4263 41.25H36.5625C36.7278 41.2499 36.8901 41.2062 37.033 41.1232C37.1759 41.0403 37.2943 40.921 37.3763 40.7775L44.8763 27.6525C44.9576 27.5099 45.0002 27.3486 44.9998 27.1844C44.9995 27.0203 44.9563 26.8591 44.8744 26.7169ZM18.045 26.25L22.5 18.8906L26.9532 26.25H18.045Z" fill="url(#paint3_linear_861_87)"/>
</g>
<defs>
<linearGradient id="paint0_linear_861_87" x1="12.5324" y1="8.93053" x2="21.7349" y2="18.133" gradientUnits="userSpaceOnUse">
<stop stop-opacity="0.1"/>
<stop offset="1" stop-opacity="0"/>
</linearGradient>
<linearGradient id="paint1_linear_861_87" x1="30.1893" y1="20.6829" x2="39.0637" y2="29.5554" gradientUnits="userSpaceOnUse">
<stop stop-opacity="0.1"/>
<stop offset="1" stop-opacity="0"/>
</linearGradient>
<linearGradient id="paint2_linear_861_87" x1="10.2731" y1="38.175" x2="18.5343" y2="28.8" gradientUnits="userSpaceOnUse">
<stop stop-opacity="0.1"/>
<stop offset="1" stop-opacity="0"/>
</linearGradient>
<linearGradient id="paint3_linear_861_87" x1="5.1488" y1="15.9394" x2="42.27" y2="33.2494" gradientUnits="userSpaceOnUse">
<stop stop-color="white" stop-opacity="0.2"/>
<stop offset="1" stop-color="white" stop-opacity="0"/>
</linearGradient>
<clipPath id="clip0_861_87">
<rect width="45" height="45" fill="white"/>
</clipPath>
</defs>
</svg>
