<svg width="45" height="45" viewBox="0 0 45 45" fill="none" xmlns="http://www.w3.org/2000/svg">
<path d="M39.1012 9.64875L29.7262 0.27375C29.5496 0.0987305 29.3111 0.000373381 29.0625 0L9.375 0C7.30687 0 5.625 1.68187 5.625 3.75V41.25C5.625 43.3181 7.30687 45 9.375 45H35.625C37.6931 45 39.375 43.3181 39.375 41.25V10.3125C39.3746 10.0639 39.2763 9.82537 39.1012 9.64875Z" fill="#303C42"/>
<path d="M30 3.20068L36.1744 9.37506H31.875C30.8419 9.37506 30 8.53318 30 7.50006V3.20068Z" fill="#7DDDE9"/>
<path d="M35.625 43.125H9.375C8.34188 43.125 7.5 42.2831 7.5 41.25V3.75C7.5 2.71688 8.34188 1.875 9.375 1.875H28.125V7.5C28.125 9.56813 29.8069 11.25 31.875 11.25H37.5V41.25C37.5 42.2831 36.6581 43.125 35.625 43.125Z" fill="#42A5F5"/>
<path d="M30.9375 20.625H14.0625C13.8139 20.625 13.5754 20.7238 13.3996 20.8996C13.2238 21.0754 13.125 21.3139 13.125 21.5625C13.125 21.8111 13.2238 22.0496 13.3996 22.2254C13.5754 22.4012 13.8139 22.5 14.0625 22.5H30.9375C31.1861 22.5 31.4246 22.4012 31.6004 22.2254C31.7762 22.0496 31.875 21.8111 31.875 21.5625C31.875 21.3139 31.7762 21.0754 31.6004 20.8996C31.4246 20.7238 31.1861 20.625 30.9375 20.625ZM30.9375 24.375H14.0625C13.8139 24.375 13.5754 24.4738 13.3996 24.6496C13.2238 24.8254 13.125 25.0639 13.125 25.3125C13.125 25.5611 13.2238 25.7996 13.3996 25.9754C13.5754 26.1512 13.8139 26.25 14.0625 26.25H30.9375C31.1861 26.25 31.4246 26.1512 31.6004 25.9754C31.7762 25.7996 31.875 25.5611 31.875 25.3125C31.875 25.0639 31.7762 24.8254 31.6004 24.6496C31.4246 24.4738 31.1861 24.375 30.9375 24.375ZM30.9375 28.125H14.0625C13.8139 28.125 13.5754 28.2238 13.3996 28.3996C13.2238 28.5754 13.125 28.8139 13.125 29.0625C13.125 29.3111 13.2238 29.5496 13.3996 29.7254C13.5754 29.9012 13.8139 30 14.0625 30H30.9375C31.1861 30 31.4246 29.9012 31.6004 29.7254C31.7762 29.5496 31.875 29.3111 31.875 29.0625C31.875 28.8139 31.7762 28.5754 31.6004 28.3996C31.4246 28.2238 31.1861 28.125 30.9375 28.125ZM23.4375 31.875H14.0625C13.8139 31.875 13.5754 31.9738 13.3996 32.1496C13.2238 32.3254 13.125 32.5639 13.125 32.8125C13.125 33.0611 13.2238 33.2996 13.3996 33.4754C13.5754 33.6512 13.8139 33.75 14.0625 33.75H23.4375C23.6861 33.75 23.9246 33.6512 24.1004 33.4754C24.2762 33.2996 24.375 33.0611 24.375 32.8125C24.375 32.5639 24.2762 32.3254 24.1004 32.1496C23.9246 31.9738 23.6861 31.875 23.4375 31.875Z" fill="white"/>
<path d="M37.4999 18.4142V11.2498H31.8749C30.883 11.2498 29.9868 10.8561 29.3155 10.2261L29.3118 10.2279L37.4999 18.4142Z" fill="url(#paint0_linear_743_4357)"/>
<path d="M39.1012 9.64875L29.7262 0.27375C29.5496 0.0987305 29.3111 0.000373381 29.0625 0L9.375 0C7.30687 0 5.625 1.68187 5.625 3.75V41.25C5.625 43.3181 7.30687 45 9.375 45H35.625C37.6931 45 39.375 43.3181 39.375 41.25V10.3125C39.3746 10.0639 39.2763 9.82537 39.1012 9.64875Z" fill="url(#paint1_linear_743_4357)"/>
<defs>
<linearGradient id="paint0_linear_743_4357" x1="31.1043" y1="8.43545" x2="39.2905" y2="16.6236" gradientUnits="userSpaceOnUse">
<stop stop-opacity="0.1"/>
<stop offset="1" stop-opacity="0"/>
</linearGradient>
<linearGradient id="paint1_linear_743_4357" x1="0.496875" y1="13.9144" x2="43.2188" y2="33.8363" gradientUnits="userSpaceOnUse">
<stop stop-color="white" stop-opacity="0.2"/>
<stop offset="1" stop-color="white" stop-opacity="0"/>
</linearGradient>
</defs>
</svg>
