<svg width="35" height="35" viewBox="0 0 35 35" fill="none" xmlns="http://www.w3.org/2000/svg">
<g clip-path="url(#clip0_851_4395)">
<path d="M7.29167 21.8751V17.5001H11.6667V14.5834H7.29167V10.2084H4.375V14.5834H0V17.5001H4.375V21.8751H7.29167ZM17.5 20.0522C14.0875 20.0522 7.29167 21.7584 7.29167 25.1563V27.7084H27.7083V25.1563C27.7083 21.7584 20.9125 20.0522 17.5 20.0522ZM10.7042 24.7917C11.9292 23.9459 14.8896 22.9688 17.5 22.9688C20.1104 22.9688 23.0708 23.9459 24.2958 24.7917H10.7042ZM17.5 17.5001C20.3146 17.5001 22.6042 15.2105 22.6042 12.3959C22.6042 9.58133 20.3146 7.29175 17.5 7.29175C14.6854 7.29175 12.3958 9.58133 12.3958 12.3959C12.3958 15.2105 14.6854 17.5001 17.5 17.5001ZM17.5 10.2084C18.7104 10.2084 19.6875 11.1855 19.6875 12.3959C19.6875 13.6063 18.7104 14.5834 17.5 14.5834C16.2896 14.5834 15.3125 13.6063 15.3125 12.3959C15.3125 11.1855 16.2896 10.2084 17.5 10.2084ZM24.7917 17.5001C27.6063 17.5001 29.8958 15.2105 29.8958 12.3959C29.8958 9.58133 27.6063 7.29175 24.7917 7.29175C24.4417 7.29175 24.0917 7.32091 23.7563 7.39383C24.9033 8.80728 25.5268 10.5735 25.5215 12.3938C25.5162 14.2141 24.8823 15.9767 23.7271 17.3834C24.0771 17.4563 24.4271 17.5001 24.7917 17.5001ZM28.175 20.4459C29.6333 21.6272 30.625 23.173 30.625 25.1563V27.7084H35V25.1563C35 22.6917 31.4417 21.1313 28.175 20.4459Z" fill="#8E8E8E"/>
</g>
<defs>
<clipPath id="clip0_851_4395">
<rect width="35" height="35" fill="white"/>
</clipPath>
</defs>
</svg>
