<svg width="45" height="45" viewBox="0 0 45 45" fill="none" xmlns="http://www.w3.org/2000/svg">
<path d="M22.5 10.5469C22.0781 10.5469 21.7969 10.2656 21.7969 9.84375V5.625C21.7969 5.20312 22.0781 4.92188 22.5 4.92188C22.9219 4.92188 23.2031 5.20312 23.2031 5.625V9.84375C23.2031 10.2656 22.9219 10.5469 22.5 10.5469Z" fill="#4F5266"/>
<path d="M22.5 6.32812C21.375 6.32812 20.3906 5.34375 20.3906 4.21875C20.3906 3.09375 21.375 2.10938 22.5 2.10938C23.625 2.10938 24.6094 3.09375 24.6094 4.21875C24.6094 5.34375 23.625 6.32812 22.5 6.32812ZM22.5 3.51562C22.0781 3.51562 21.7969 3.79688 21.7969 4.21875C21.7969 4.64062 22.0781 4.92188 22.5 4.92188C22.9219 4.92188 23.2031 4.64062 23.2031 4.21875C23.2031 3.79688 22.9219 3.51562 22.5 3.51562ZM18.2812 17.5781C16.7344 17.5781 15.4688 16.3125 15.4688 14.7656C15.4688 13.2188 16.7344 11.9531 18.2812 11.9531C19.8281 11.9531 21.0938 13.2188 21.0938 14.7656C21.0938 16.3125 19.8281 17.5781 18.2812 17.5781ZM18.2812 13.3594C17.4375 13.3594 16.875 13.9219 16.875 14.7656C16.875 15.6094 17.4375 16.1719 18.2812 16.1719C19.125 16.1719 19.6875 15.6094 19.6875 14.7656C19.6875 13.9219 19.125 13.3594 18.2812 13.3594ZM26.7188 17.5781C25.1719 17.5781 23.9062 16.3125 23.9062 14.7656C23.9062 13.2188 25.1719 11.9531 26.7188 11.9531C28.2656 11.9531 29.5312 13.2188 29.5312 14.7656C29.5312 16.3125 28.2656 17.5781 26.7188 17.5781ZM26.7188 13.3594C25.875 13.3594 25.3125 13.9219 25.3125 14.7656C25.3125 15.6094 25.875 16.1719 26.7188 16.1719C27.5625 16.1719 28.125 15.6094 28.125 14.7656C28.125 13.9219 27.5625 13.3594 26.7188 13.3594Z" fill="#4F5266"/>
<path d="M27.4219 20.3906H17.5781C14.9062 20.3906 12.6562 18.1406 12.6562 15.4688V14.0625C12.6562 11.3906 14.9062 9.14062 17.5781 9.14062H27.4219C30.0938 9.14062 32.3438 11.3906 32.3438 14.0625V15.4688C32.3438 18.1406 30.0938 20.3906 27.4219 20.3906ZM17.5781 10.5469C15.6094 10.5469 14.0625 12.0938 14.0625 14.0625V15.4688C14.0625 17.4375 15.6094 18.9844 17.5781 18.9844H27.4219C29.3906 18.9844 30.9375 17.4375 30.9375 15.4688V14.0625C30.9375 12.0938 29.3906 10.5469 27.4219 10.5469H17.5781Z" fill="#4F5266"/>
<path d="M24.6094 24.6094H20.3906C19.9687 24.6094 19.6875 24.3281 19.6875 23.9062V19.6875C19.6875 19.2656 19.9687 18.9844 20.3906 18.9844H24.6094C25.0312 18.9844 25.3125 19.2656 25.3125 19.6875V23.9062C25.3125 24.3281 25.0312 24.6094 24.6094 24.6094ZM21.0938 23.2031H23.9062V20.3906H21.0938V23.2031Z" fill="#4F5266"/>
<path d="M31.6406 40.0781H13.3594C12.2344 40.0781 11.25 39.0938 11.25 37.9688V25.3125C11.25 24.1875 12.2344 23.2031 13.3594 23.2031H31.6406C32.7656 23.2031 33.75 24.1875 33.75 25.3125V37.9688C33.75 39.0938 32.7656 40.0781 31.6406 40.0781ZM13.3594 24.6094C12.9375 24.6094 12.6562 24.8906 12.6562 25.3125V37.9688C12.6562 38.3906 12.9375 38.6719 13.3594 38.6719H31.6406C32.0625 38.6719 32.3438 38.3906 32.3438 37.9688V25.3125C32.3438 24.8906 32.0625 24.6094 31.6406 24.6094H13.3594ZM10.5469 42.8906C10.125 42.8906 9.84375 42.6094 9.84375 42.1875C9.84375 41.0625 8.85938 40.0781 7.73438 40.0781C6.60938 40.0781 5.625 41.0625 5.625 42.1875C5.625 42.6094 5.34375 42.8906 4.92188 42.8906C4.5 42.8906 4.21875 42.6094 4.21875 42.1875C4.21875 40.2188 5.76562 38.6719 7.73438 38.6719C9.70312 38.6719 11.25 40.2188 11.25 42.1875C11.25 42.6094 10.9688 42.8906 10.5469 42.8906Z" fill="#4F5266"/>
<path d="M11.9531 33.0469H8.4375C6.04687 33.0469 4.21875 31.2188 4.21875 28.8281C4.21875 26.4375 6.04687 24.6094 8.4375 24.6094H11.9531C12.375 24.6094 12.6562 24.8906 12.6562 25.3125V32.3438C12.6562 32.7656 12.375 33.0469 11.9531 33.0469ZM8.4375 26.0156C6.89062 26.0156 5.625 27.2812 5.625 28.8281C5.625 30.375 6.89062 31.6406 8.4375 31.6406H11.25V26.0156H8.4375Z" fill="#4F5266"/>
<path d="M9.14062 40.0781C8.71875 40.0781 8.4375 39.7969 8.4375 39.375V33.0469C8.01562 33.0469 7.45312 32.9062 7.03125 32.7656V39.375C7.03125 39.7969 6.75 40.0781 6.32812 40.0781C5.90625 40.0781 5.625 39.7969 5.625 39.375V31.6406C5.625 31.3594 5.76563 31.0781 6.04688 31.0781C6.32813 31.0781 6.60938 30.9375 6.75 31.0781C7.3125 31.5 7.875 31.6406 8.4375 31.6406H9.14062C9.5625 31.6406 9.84375 31.9219 9.84375 32.3438V39.375C9.84375 39.7969 9.5625 40.0781 9.14062 40.0781ZM40.0781 42.8906C39.6562 42.8906 39.375 42.6094 39.375 42.1875C39.375 41.0625 38.3906 40.0781 37.2656 40.0781C36.1406 40.0781 35.1562 41.0625 35.1562 42.1875C35.1562 42.6094 34.875 42.8906 34.4531 42.8906C34.0312 42.8906 33.75 42.6094 33.75 42.1875C33.75 40.2188 35.2969 38.6719 37.2656 38.6719C39.2344 38.6719 40.7812 40.2188 40.7812 42.1875C40.7812 42.6094 40.5 42.8906 40.0781 42.8906ZM36.5625 33.0469H33.0469C32.625 33.0469 32.3438 32.7656 32.3438 32.3438V25.3125C32.3438 24.8906 32.625 24.6094 33.0469 24.6094H36.5625C38.9531 24.6094 40.7812 26.4375 40.7812 28.8281C40.7812 31.2188 38.9531 33.0469 36.5625 33.0469ZM33.75 31.6406H36.5625C38.1094 31.6406 39.375 30.375 39.375 28.8281C39.375 27.2812 38.1094 26.0156 36.5625 26.0156H33.75V31.6406Z" fill="#4F5266"/>
<path d="M38.6719 40.0781C38.25 40.0781 37.9688 39.7969 37.9688 39.375V32.7656C37.5469 32.9062 36.9844 33.0469 36.5625 33.0469V39.375C36.5625 39.7969 36.2812 40.0781 35.8594 40.0781C35.4375 40.0781 35.1562 39.7969 35.1562 39.375V32.3438C35.1562 31.9219 35.4375 31.6406 35.8594 31.6406H36.5625C37.125 31.6406 37.6875 31.5 38.25 31.0781C38.5313 30.9375 38.8125 30.9375 38.9531 31.0781C39.2344 31.2188 39.375 31.5 39.375 31.6406V39.375C39.375 39.7969 39.0938 40.0781 38.6719 40.0781ZM28.125 34.4531C27.7031 34.4531 27.4219 34.1719 27.4219 33.75V28.125C27.4219 27.7031 27.7031 27.4219 28.125 27.4219C28.5469 27.4219 28.8281 27.7031 28.8281 28.125V33.75C28.8281 34.1719 28.5469 34.4531 28.125 34.4531Z" fill="#4F5266"/>
<path d="M29.5312 28.8281H26.7188C26.2969 28.8281 26.0156 28.5469 26.0156 28.125C26.0156 27.7031 26.2969 27.4219 26.7188 27.4219H29.5312C29.9531 27.4219 30.2344 27.7031 30.2344 28.125C30.2344 28.5469 29.9531 28.8281 29.5312 28.8281ZM16.875 31.6406H15.4688C15.0469 31.6406 14.7656 31.3594 14.7656 30.9375V28.125C14.7656 27.7031 15.0469 27.4219 15.4688 27.4219H16.875C18 27.4219 18.9844 28.4062 18.9844 29.5312C18.9844 30.6562 18 31.6406 16.875 31.6406ZM16.1719 30.2344H16.875C17.2969 30.2344 17.5781 29.9531 17.5781 29.5312C17.5781 29.1094 17.2969 28.8281 16.875 28.8281H16.1719V30.2344Z" fill="#4F5266"/>
<path d="M16.875 34.4531H15.4688C15.0469 34.4531 14.7656 34.1719 14.7656 33.75V30.9375C14.7656 30.5156 15.0469 30.2344 15.4688 30.2344H16.875C18 30.2344 18.9844 31.2188 18.9844 32.3438C18.9844 33.4688 18 34.4531 16.875 34.4531ZM16.1719 33.0469H16.875C17.2969 33.0469 17.5781 32.7656 17.5781 32.3438C17.5781 31.9219 17.2969 31.6406 16.875 31.6406H16.1719V33.0469ZM22.5 34.4531C21.375 34.4531 20.3906 33.4688 20.3906 32.3438V29.5312C20.3906 28.4062 21.375 27.4219 22.5 27.4219C23.625 27.4219 24.6094 28.4062 24.6094 29.5312V32.3438C24.6094 33.4688 23.625 34.4531 22.5 34.4531ZM22.5 28.8281C22.0781 28.8281 21.7969 29.1094 21.7969 29.5312V32.3438C21.7969 32.7656 22.0781 33.0469 22.5 33.0469C22.9219 33.0469 23.2031 32.7656 23.2031 32.3438V29.5312C23.2031 29.1094 22.9219 28.8281 22.5 28.8281Z" fill="#4F5266"/>
</svg>
