<svg width="15" height="15" viewBox="0 0 30 30" fill="none" xmlns="http://www.w3.org/2000/svg">
<g opacity="0.5">
<path d="M3.21439 27.8571H8.03582V23.0357H3.21439V27.8571ZM9.10725 27.8571H14.4644V23.0357H9.10725V27.8571ZM3.21439 21.9643H8.03582V16.6071H3.21439V21.9643ZM9.10725 21.9643H14.4644V16.6071H9.10725V21.9643ZM3.21439 15.5357H8.03582V10.7143H3.21439V15.5357ZM15.5358 27.8571H20.893V23.0357H15.5358V27.8571ZM9.10725 15.5357H14.4644V10.7143H9.10725V15.5357ZM21.9644 27.8571H26.7858V23.0357H21.9644V27.8571ZM15.5358 21.9643H20.893V16.6071H15.5358V21.9643ZM9.64296 7.5V2.67857C9.64296 2.53348 9.58995 2.40792 9.48392 2.3019C9.37789 2.19587 9.25234 2.14286 9.10725 2.14286H8.03582C7.89073 2.14286 7.76517 2.19587 7.65914 2.3019C7.55312 2.40792 7.5001 2.53348 7.5001 2.67857V7.5C7.5001 7.64509 7.55312 7.77065 7.65914 7.87667C7.76517 7.9827 7.89073 8.03571 8.03582 8.03571H9.10725C9.25234 8.03571 9.37789 7.9827 9.48392 7.87667C9.58995 7.77065 9.64296 7.64509 9.64296 7.5ZM21.9644 21.9643H26.7858V16.6071H21.9644V21.9643ZM15.5358 15.5357H20.893V10.7143H15.5358V15.5357ZM21.9644 15.5357H26.7858V10.7143H21.9644V15.5357ZM22.5001 7.5V2.67857C22.5001 2.53348 22.4471 2.40792 22.3411 2.3019C22.235 2.19587 22.1095 2.14286 21.9644 2.14286H20.893C20.7479 2.14286 20.6223 2.19587 20.5163 2.3019C20.4103 2.40792 20.3572 2.53348 20.3572 2.67857V7.5C20.3572 7.64509 20.4103 7.77065 20.5163 7.87667C20.6223 7.9827 20.7479 8.03571 20.893 8.03571H21.9644C22.1095 8.03571 22.235 7.9827 22.3411 7.87667C22.4471 7.77065 22.5001 7.64509 22.5001 7.5ZM28.9287 6.42857V27.8571C28.9287 28.4375 28.7166 28.9397 28.2925 29.3638C27.8684 29.7879 27.3662 30 26.7858 30H3.21439C2.63403 30 2.1318 29.7879 1.70769 29.3638C1.28359 28.9397 1.07153 28.4375 1.07153 27.8571V6.42857C1.07153 5.84821 1.28359 5.34598 1.70769 4.92188C2.1318 4.49777 2.63403 4.28571 3.21439 4.28571H5.35725V2.67857C5.35725 1.94196 5.61952 1.31138 6.14408 0.78683C6.66863 0.262277 7.29921 0 8.03582 0H9.10725C9.84385 0 10.4744 0.262277 10.999 0.78683C11.5235 1.31138 11.7858 1.94196 11.7858 2.67857V4.28571H18.2144V2.67857C18.2144 1.94196 18.4767 1.31138 19.0012 0.78683C19.5258 0.262277 20.1564 0 20.893 0H21.9644C22.701 0 23.3316 0.262277 23.8561 0.78683C24.3807 1.31138 24.643 1.94196 24.643 2.67857V4.28571H26.7858C27.3662 4.28571 27.8684 4.49777 28.2925 4.92188C28.7166 5.34598 28.9287 5.84821 28.9287 6.42857Z" fill="black"/>
</g>
</svg>